<?xml version="1.0" encoding="UTF-8"?>
<svg width="1200pt" height="1200pt" version="1.1" viewBox="0 0 1200 1200" xmlns="http://www.w3.org/2000/svg" fill="#BD9459">
 <path d="m1065.8 923.25-174-173.25c-16.988-16.02-38.859-25.875-62.117-27.98-23.254-2.1094-46.543 3.6523-66.133 16.355l-75-75h-2.25c58.711-65.453 89.562-151.23 85.984-239.09-3.5742-87.852-41.293-170.84-105.13-231.3-63.836-60.465-148.75-93.629-236.67-92.438s-171.9 36.648-234.07 98.82c-62.172 62.172-97.629 146.15-98.82 234.07s31.973 172.83 92.438 236.67c60.461 63.836 143.45 101.55 231.3 105.13 87.855 3.5781 173.63-27.273 239.09-85.984-0.10938 0.74609-0.10938 1.5039 0 2.25l75 75c-12.156 19.434-17.328 42.426-14.672 65.191 2.6602 22.766 12.992 43.949 29.297 60.059l174.38 174c18.863 18.961 44.504 29.621 71.25 29.621s52.387-10.66 71.25-29.621c18.719-19.059 29.117-44.766 28.906-71.484-0.21094-26.715-11.012-52.254-30.031-71.016zm-630-187.5c-69.438 0.11719-136.76-23.852-190.5-67.824-53.738-43.973-90.559-105.22-104.18-173.31-13.625-68.086-3.207-138.79 29.469-200.05 32.68-61.266 85.602-109.3 149.73-135.91 64.137-26.609 135.52-30.145 201.96-10.012 66.453 20.137 123.86 62.703 162.44 120.43 38.574 57.734 55.934 127.06 49.105 196.16-6.8242 69.098-37.406 133.69-86.531 182.76-27.766 27.742-60.754 49.711-97.051 64.645-36.301 14.934-75.199 22.531-114.45 22.355zm603.38 304.12c-11.887 11.887-28.004 18.562-44.812 18.562s-32.926-6.6758-44.812-18.562l-174-174c-11.969-11.867-18.715-28.012-18.75-44.867-0.035156-16.855 6.6445-33.027 18.562-44.945s28.09-18.598 44.945-18.562c16.855 0.035156 33 6.7812 44.867 18.75l174 174c11.656 11.852 18.191 27.812 18.191 44.438s-6.5352 32.586-18.191 44.438z"/>
</svg>
